<?xml version="1.0" standalone="no"?>
<!DOCTYPE svg PUBLIC "-//W3C//DTD SVG 20010904//EN"
 "http://www.w3.org/TR/2001/REC-SVG-20010904/DTD/svg10.dtd">
<svg version="1.0" xmlns="http://www.w3.org/2000/svg"
 width="128.000000pt" height="128.000000pt" viewBox="0 0 128.000000 128.000000"
 preserveAspectRatio="xMidYMid meet">
<metadata>
Created by potrace 1.10, written by Peter Selinger 2001-2011
</metadata>
<g transform="translate(0.000000,128.000000) scale(0.100000,-0.100000)"
fill="#000000" stroke="none">
<path d="M481 1190 c-82 -12 -187 -70 -252 -137 -118 -121 -163 -263 -134
-426 28 -160 116 -277 263 -350 l85 -42 116 0 c114 0 117 1 196 39 294 144
373 519 160 763 -104 119 -271 178 -434 153z m171 -71 c117 -25 226 -107 277
-210 84 -169 54 -357 -78 -490 -132 -131 -317 -159 -484 -72 -244 128 -292
453 -96 652 105 107 241 150 381 120z"/>
<path d="M475 1066 c-110 -35 -191 -104 -238 -204 -50 -107 -47 -240 8 -337
30 -53 113 -130 161 -150 228 -96 466 34 514 283 21 105 -16 233 -89 309 -91
95 -239 136 -356 99z m237 -43 c96 -43 170 -140 183 -241 6 -48 -1 -51 -32
-19 -12 13 -99 70 -194 128 -240 144 -238 142 -158 158 62 13 134 3 201 -26z
m-182 -87 c58 -35 151 -92 208 -126 115 -69 140 -96 122 -130 -11 -20 -118
-96 -323 -228 -65 -41 -89 -52 -117 -50 -57 5 -60 20 -60 303 0 211 2 254 16
273 8 12 23 22 32 22 9 0 64 -29 122 -64z m-200 -232 c0 -142 -4 -224 -10
-224 -18 0 -70 82 -85 133 -18 62 -19 108 -2 174 15 57 74 156 88 147 5 -3 9
-106 9 -230z m542 -121 c-22 -61 -114 -156 -178 -185 -52 -23 -184 -38 -184
-21 0 6 30 30 68 55 37 24 103 68 147 97 44 29 96 64 115 77 19 13 38 24 42
24 4 0 -1 -21 -10 -47z"/>
<path d="M636 825 c-8 -23 -6 -225 3 -249 7 -19 8 -19 15 0 10 25 8 233 -3
251 -7 13 -9 13 -15 -2z"/>
<path d="M1094 707 c0 -104 -24 -192 -73 -269 -44 -70 -55 -92 -41 -83 21 13
76 108 99 170 24 63 43 275 25 275 -5 0 -9 -42 -10 -93z"/>
<path d="M952 328 c-9 -9 -8 -16 5 -30 21 -23 33 -23 33 1 0 26 -23 44 -38 29z"/>
<path d="M1070 305 c0 -8 6 -15 13 -15 12 0 133 -124 149 -155 8 -14 -35 -75
-54 -75 -5 0 -46 34 -91 75 -44 41 -85 75 -90 75 -6 0 5 -14 24 -31 19 -18 62
-59 96 -93 l63 -60 45 44 c25 24 45 48 45 53 0 7 -189 197 -197 197 -2 0 -3
-7 -3 -15z"/>
<path d="M860 267 c-108 -72 -195 -99 -320 -98 -89 1 -162 20 -249 68 -35 19
-60 30 -57 24 13 -21 124 -73 195 -92 41 -10 99 -19 130 -19 66 0 183 30 249
64 42 21 135 95 122 96 -3 0 -34 -19 -70 -43z"/>
</g>
</svg>
